<svg xmlns="http://www.w3.org/2000/svg" width="500" height="500" viewBox="0 0 500 500" shape-rendering="crispEdges" data-cell-size="10" data-rows="50" data-cols="50"><rect width="100%" height="100%" fill="#fff" /><g fill="#111"><rect x="290" y="120" width="10" height="10" /><rect x="300" y="120" width="10" height="10" /><rect x="310" y="120" width="10" height="10" /><rect x="280" y="130" width="10" height="10" /><rect x="270" y="140" width="10" height="10" /><rect x="250" y="150" width="10" height="10" /><rect x="230" y="170" width="10" height="10" /><rect x="210" y="190" width="10" height="10" /><rect x="180" y="210" width="10" height="10" /><rect x="160" y="230" width="10" height="10" /><rect x="140" y="250" width="10" height="10" /><rect x="120" y="270" width="10" height="10" /><rect x="100" y="290" width="10" height="10" /><rect x="110" y="290" width="10" height="10" /></g></svg>