<svg xmlns="http://www.w3.org/2000/svg" width="500" height="500" viewBox="0 0 500 500" shape-rendering="crispEdges" data-cell-size="10" data-rows="50" data-cols="50"><rect width="100%" height="100%" fill="#fff" /><g fill="#111"><rect x="110" y="160" width="10" height="10" /><rect x="250" y="160" width="10" height="10" /><rect x="190" y="170" width="10" height="10" /><rect x="200" y="170" width="10" height="10" /><rect x="250" y="170" width="10" height="10" /><rect x="360" y="170" width="10" height="10" /><rect x="370" y="170" width="10" height="10" /><rect x="110" y="180" width="10" height="10" /><rect x="200" y="180" width="10" height="10" /><rect x="260" y="180" width="10" height="10" /><rect x="340" y="180" width="10" height="10" /><rect x="350" y="180" width="10" height="10" /><rect x="380" y="180" width="10" height="10" /><rect x="390" y="180" width="10" height="10" /><rect x="200" y="190" width="10" height="10" /><rect x="210" y="190" width="10" height="10" /><rect x="260" y="190" width="10" height="10" /><rect x="330" y="190" width="10" height="10" /><rect x="410" y="190" width="10" height="10" /><rect x="420" y="190" width="10" height="10" /><rect x="430" y="190" width="10" height="10" /><rect x="440" y="190" width="10" height="10" /><rect x="110" y="200" width="10" height="10" /><rect x="210" y="200" width="10" height="10" /><rect x="260" y="200" width="10" height="10" /><rect x="330" y="200" width="10" height="10" /><rect x="110" y="210" width="10" height="10" /><rect x="200" y="210" width="10" height="10" /><rect x="220" y="210" width="10" height="10" /><rect x="260" y="210" width="10" height="10" /><rect x="270" y="210" width="10" height="10" /><rect x="410" y="210" width="10" height="10" /><rect x="210" y="220" width="10" height="10" /><rect x="220" y="220" width="10" height="10" /><rect x="260" y="220" width="10" height="10" /><rect x="390" y="220" width="10" height="10" /><rect x="200" y="230" width="10" height="10" /><rect x="220" y="230" width="10" height="10" /><rect x="230" y="230" width="10" height="10" /><rect x="260" y="230" width="10" height="10" /><rect x="270" y="230" width="10" height="10" /><rect x="370" y="230" width="10" height="10" /><rect x="110" y="240" width="10" height="10" /><rect x="230" y="240" width="10" height="10" /><rect x="240" y="240" width="10" height="10" /><rect x="250" y="240" width="10" height="10" /><rect x="280" y="240" width="10" height="10" /><rect x="290" y="240" width="10" height="10" /><rect x="310" y="240" width="10" height="10" /><rect x="320" y="240" width="10" height="10" /><rect x="340" y="240" width="10" height="10" /><rect x="200" y="250" width="10" height="10" /><rect x="110" y="260" width="10" height="10" /><rect x="170" y="260" width="10" height="10" /><rect x="180" y="260" width="10" height="10" /><rect x="100" y="270" width="10" height="10" /><rect x="140" y="270" width="10" height="10" /><rect x="150" y="270" width="10" height="10" /><rect x="90" y="290" width="10" height="10" /><rect x="240" y="290" width="10" height="10" /><rect x="270" y="290" width="10" height="10" /><rect x="50" y="320" width="10" height="10" /><rect x="60" y="320" width="10" height="10" /><rect x="70" y="320" width="10" height="10" /></g></svg>