<svg xmlns="http://www.w3.org/2000/svg" width="500" height="500" viewBox="0 0 500 500" shape-rendering="crispEdges" data-cell-size="10" data-rows="50" data-cols="50"><rect width="100%" height="100%" fill="#fff" /><g fill="#111"><rect x="320" y="130" width="10" height="10" /><rect x="270" y="140" width="10" height="10" /><rect x="370" y="140" width="10" height="10" /><rect x="400" y="150" width="10" height="10" /><rect x="230" y="170" width="10" height="10" /><rect x="420" y="170" width="10" height="10" /><rect x="210" y="200" width="10" height="10" /><rect x="420" y="200" width="10" height="10" /><rect x="200" y="220" width="10" height="10" /><rect x="200" y="230" width="10" height="10" /><rect x="420" y="230" width="10" height="10" /><rect x="400" y="290" width="10" height="10" /><rect x="470" y="310" width="10" height="10" /><rect x="450" y="340" width="10" height="10" /><rect x="370" y="360" width="10" height="10" /><rect x="410" y="380" width="10" height="10" /><rect x="350" y="410" width="10" height="10" /><rect x="370" y="420" width="10" height="10" /><rect x="340" y="440" width="10" height="10" /><rect x="340" y="450" width="10" height="10" /><rect x="350" y="450" width="10" height="10" /><rect x="330" y="460" width="10" height="10" /><rect x="330" y="470" width="10" height="10" /></g></svg>