<svg xmlns="http://www.w3.org/2000/svg" width="500" height="500" viewBox="0 0 500 500" shape-rendering="crispEdges" data-cell-size="10" data-rows="50" data-cols="50"><rect width="100%" height="100%" fill="#fff" /><g fill="#111"><rect x="250" y="0" width="10" height="10" /><rect x="240" y="10" width="10" height="10" /><rect x="260" y="10" width="10" height="10" /><rect x="230" y="20" width="10" height="10" /><rect x="270" y="20" width="10" height="10" /><rect x="220" y="30" width="10" height="10" /><rect x="280" y="30" width="10" height="10" /><rect x="210" y="40" width="10" height="10" /><rect x="290" y="40" width="10" height="10" /><rect x="200" y="50" width="10" height="10" /><rect x="300" y="50" width="10" height="10" /><rect x="190" y="60" width="10" height="10" /><rect x="310" y="60" width="10" height="10" /><rect x="180" y="70" width="10" height="10" /><rect x="320" y="70" width="10" height="10" /><rect x="170" y="80" width="10" height="10" /><rect x="330" y="80" width="10" height="10" /><rect x="160" y="90" width="10" height="10" /><rect x="340" y="90" width="10" height="10" /><rect x="150" y="100" width="10" height="10" /><rect x="350" y="100" width="10" height="10" /><rect x="150" y="110" width="10" height="10" /><rect x="350" y="110" width="10" height="10" /><rect x="140" y="120" width="10" height="10" /><rect x="360" y="120" width="10" height="10" /><rect x="140" y="130" width="10" height="10" /><rect x="360" y="130" width="10" height="10" /><rect x="130" y="140" width="10" height="10" /><rect x="370" y="140" width="10" height="10" /><rect x="130" y="150" width="10" height="10" /><rect x="370" y="150" width="10" height="10" /><rect x="120" y="160" width="10" height="10" /><rect x="380" y="160" width="10" height="10" /><rect x="120" y="170" width="10" height="10" /><rect x="380" y="170" width="10" height="10" /><rect x="110" y="180" width="10" height="10" /><rect x="390" y="180" width="10" height="10" /><rect x="110" y="190" width="10" height="10" /><rect x="390" y="190" width="10" height="10" /><rect x="100" y="200" width="10" height="10" /><rect x="400" y="200" width="10" height="10" /><rect x="100" y="210" width="10" height="10" /><rect x="400" y="210" width="10" height="10" /><rect x="90" y="220" width="10" height="10" /><rect x="410" y="220" width="10" height="10" /><rect x="90" y="230" width="10" height="10" /><rect x="410" y="230" width="10" height="10" /><rect x="80" y="240" width="10" height="10" /><rect x="420" y="240" width="10" height="10" /><rect x="80" y="250" width="10" height="10" /><rect x="420" y="250" width="10" height="10" /><rect x="70" y="260" width="10" height="10" /><rect x="430" y="260" width="10" height="10" /><rect x="70" y="270" width="10" height="10" /><rect x="240" y="270" width="10" height="10" /><rect x="260" y="270" width="10" height="10" /><rect x="430" y="270" width="10" height="10" /><rect x="230" y="280" width="10" height="10" /><rect x="270" y="280" width="10" height="10" /><rect x="230" y="290" width="10" height="10" /><rect x="270" y="290" width="10" height="10" /><rect x="230" y="300" width="10" height="10" /><rect x="270" y="300" width="10" height="10" /><rect x="230" y="310" width="10" height="10" /><rect x="270" y="310" width="10" height="10" /><rect x="230" y="320" width="10" height="10" /><rect x="270" y="320" width="10" height="10" /><rect x="230" y="330" width="10" height="10" /><rect x="270" y="330" width="10" height="10" /><rect x="230" y="340" width="10" height="10" /><rect x="270" y="340" width="10" height="10" /><rect x="230" y="350" width="10" height="10" /><rect x="270" y="350" width="10" height="10" /><rect x="230" y="360" width="10" height="10" /><rect x="270" y="360" width="10" height="10" /><rect x="230" y="370" width="10" height="10" /><rect x="270" y="370" width="10" height="10" /><rect x="230" y="380" width="10" height="10" /><rect x="270" y="380" width="10" height="10" /><rect x="230" y="390" width="10" height="10" /><rect x="270" y="390" width="10" height="10" /><rect x="170" y="400" width="10" height="10" /><rect x="180" y="400" width="10" height="10" /><rect x="190" y="400" width="10" height="10" /><rect x="200" y="400" width="10" height="10" /><rect x="210" y="400" width="10" height="10" /><rect x="220" y="400" width="10" height="10" /><rect x="230" y="400" width="10" height="10" /><rect x="240" y="400" width="10" height="10" /><rect x="250" y="400" width="10" height="10" /><rect x="260" y="400" width="10" height="10" /><rect x="270" y="400" width="10" height="10" /><rect x="280" y="400" width="10" height="10" /><rect x="290" y="400" width="10" height="10" /><rect x="300" y="400" width="10" height="10" /><rect x="310" y="400" width="10" height="10" /><rect x="320" y="400" width="10" height="10" /><rect x="190" y="410" width="10" height="10" /><rect x="330" y="410" width="10" height="10" /><rect x="180" y="420" width="10" height="10" /><rect x="340" y="420" width="10" height="10" /><rect x="170" y="430" width="10" height="10" /><rect x="350" y="430" width="10" height="10" /><rect x="150" y="440" width="10" height="10" /><rect x="160" y="440" width="10" height="10" /><rect x="170" y="440" width="10" height="10" /><rect x="180" y="440" width="10" height="10" /><rect x="190" y="440" width="10" height="10" /><rect x="200" y="440" width="10" height="10" /><rect x="210" y="440" width="10" height="10" /><rect x="220" y="440" width="10" height="10" /><rect x="230" y="440" width="10" height="10" /><rect x="240" y="440" width="10" height="10" /><rect x="250" y="440" width="10" height="10" /><rect x="260" y="440" width="10" height="10" /><rect x="270" y="440" width="10" height="10" /><rect x="280" y="440" width="10" height="10" /><rect x="290" y="440" width="10" height="10" /><rect x="300" y="440" width="10" height="10" /><rect x="310" y="440" width="10" height="10" /><rect x="320" y="440" width="10" height="10" /><rect x="330" y="440" width="10" height="10" /><rect x="340" y="440" width="10" height="10" /><rect x="350" y="440" width="10" height="10" /><rect x="360" y="440" width="10" height="10" /><rect x="370" y="440" width="10" height="10" /><rect x="160" y="450" width="10" height="10" /><rect x="360" y="450" width="10" height="10" /><rect x="160" y="460" width="10" height="10" /><rect x="360" y="460" width="10" height="10" /><rect x="150" y="470" width="10" height="10" /><rect x="370" y="470" width="10" height="10" /><rect x="140" y="480" width="10" height="10" /><rect x="150" y="480" width="10" height="10" /><rect x="160" y="480" width="10" height="10" /><rect x="170" y="480" width="10" height="10" /><rect x="180" y="480" width="10" height="10" /><rect x="190" y="480" width="10" height="10" /><rect x="200" y="480" width="10" height="10" /><rect x="210" y="480" width="10" height="10" /><rect x="220" y="480" width="10" height="10" /><rect x="230" y="480" width="10" height="10" /><rect x="240" y="480" width="10" height="10" /><rect x="250" y="480" width="10" height="10" /><rect x="260" y="480" width="10" height="10" /><rect x="270" y="480" width="10" height="10" /><rect x="280" y="480" width="10" height="10" /><rect x="290" y="480" width="10" height="10" /><rect x="300" y="480" width="10" height="10" /><rect x="310" y="480" width="10" height="10" /><rect x="320" y="480" width="10" height="10" /><rect x="330" y="480" width="10" height="10" /><rect x="340" y="480" width="10" height="10" /><rect x="350" y="480" width="10" height="10" /><rect x="360" y="480" width="10" height="10" /><rect x="370" y="480" width="10" height="10" /><rect x="380" y="480" width="10" height="10" /></g></svg>