<svg xmlns="http://www.w3.org/2000/svg"width="500" height="500"viewBox="0 0 500 500"shape-rendering="crispEdges"><rect width="100%" height="100%" fill="#fff" /><g fill="#111"><rect x="390" y="140" width="10" height="10" /><rect x="400" y="140" width="10" height="10" /><rect x="380" y="150" width="10" height="10" /><rect x="390" y="150" width="10" height="10" /><rect x="420" y="150" width="10" height="10" /><rect x="430" y="150" width="10" height="10" /><rect x="440" y="150" width="10" height="10" /><rect x="450" y="150" width="10" height="10" /><rect x="460" y="150" width="10" height="10" /><rect x="50" y="160" width="10" height="10" /><rect x="270" y="160" width="10" height="10" /><rect x="300" y="160" width="10" height="10" /><rect x="380" y="160" width="10" height="10" /><rect x="430" y="160" width="10" height="10" /><rect x="450" y="160" width="10" height="10" /><rect x="460" y="160" width="10" height="10" /><rect x="40" y="170" width="10" height="10" /><rect x="220" y="170" width="10" height="10" /><rect x="270" y="170" width="10" height="10" /><rect x="280" y="170" width="10" height="10" /><rect x="300" y="170" width="10" height="10" /><rect x="310" y="170" width="10" height="10" /><rect x="370" y="170" width="10" height="10" /><rect x="410" y="170" width="10" height="10" /><rect x="420" y="170" width="10" height="10" /><rect x="220" y="180" width="10" height="10" /><rect x="230" y="180" width="10" height="10" /><rect x="270" y="180" width="10" height="10" /><rect x="280" y="180" width="10" height="10" /><rect x="290" y="180" width="10" height="10" /><rect x="300" y="180" width="10" height="10" /><rect x="310" y="180" width="10" height="10" /><rect x="380" y="180" width="10" height="10" /><rect x="390" y="180" width="10" height="10" /><rect x="20" y="190" width="10" height="10" /><rect x="140" y="190" width="10" height="10" /><rect x="230" y="190" width="10" height="10" /><rect x="250" y="190" width="10" height="10" /><rect x="260" y="190" width="10" height="10" /><rect x="270" y="190" width="10" height="10" /><rect x="320" y="190" width="10" height="10" /><rect x="330" y="190" width="10" height="10" /><rect x="340" y="190" width="10" height="10" /><rect x="360" y="190" width="10" height="10" /><rect x="370" y="190" width="10" height="10" /><rect x="20" y="200" width="10" height="10" /><rect x="240" y="210" width="10" height="10" /><rect x="20" y="220" width="10" height="10" /><rect x="240" y="230" width="10" height="10" /><rect x="20" y="240" width="10" height="10" /><rect x="250" y="240" width="10" height="10" /><rect x="30" y="250" width="10" height="10" /><rect x="40" y="260" width="10" height="10" /><rect x="250" y="260" width="10" height="10" /><rect x="240" y="270" width="10" height="10" /><rect x="60" y="280" width="10" height="10" /><rect x="240" y="280" width="10" height="10" /><rect x="60" y="290" width="10" height="10" /><rect x="70" y="300" width="10" height="10" /><rect x="220" y="300" width="10" height="10" /><rect x="90" y="310" width="10" height="10" /><rect x="100" y="310" width="10" height="10" /><rect x="210" y="310" width="10" height="10" /><rect x="120" y="320" width="10" height="10" /><rect x="140" y="320" width="10" height="10" /><rect x="150" y="320" width="10" height="10" /><rect x="170" y="320" width="10" height="10" /><rect x="190" y="320" width="10" height="10" /></g></svg>