<svg xmlns="http://www.w3.org/2000/svg" width="500" height="500" viewBox="0 0 500 500" shape-rendering="crispEdges" data-cell-size="10" data-rows="50" data-cols="50"><rect width="100%" height="100%" fill="#fff" /><g fill="#111"><rect x="160" y="90" width="10" height="10" /><rect x="170" y="90" width="10" height="10" /><rect x="180" y="90" width="10" height="10" /><rect x="190" y="90" width="10" height="10" /><rect x="200" y="90" width="10" height="10" /><rect x="210" y="90" width="10" height="10" /><rect x="220" y="90" width="10" height="10" /><rect x="230" y="90" width="10" height="10" /><rect x="240" y="90" width="10" height="10" /><rect x="250" y="90" width="10" height="10" /><rect x="260" y="90" width="10" height="10" /><rect x="270" y="90" width="10" height="10" /><rect x="280" y="90" width="10" height="10" /><rect x="290" y="90" width="10" height="10" /><rect x="300" y="90" width="10" height="10" /><rect x="310" y="90" width="10" height="10" /><rect x="320" y="90" width="10" height="10" /><rect x="330" y="90" width="10" height="10" /><rect x="340" y="90" width="10" height="10" /><rect x="350" y="90" width="10" height="10" /><rect x="360" y="90" width="10" height="10" /><rect x="370" y="90" width="10" height="10" /><rect x="160" y="100" width="10" height="10" /><rect x="370" y="100" width="10" height="10" /><rect x="160" y="110" width="10" height="10" /><rect x="370" y="110" width="10" height="10" /><rect x="160" y="120" width="10" height="10" /><rect x="370" y="120" width="10" height="10" /><rect x="160" y="130" width="10" height="10" /><rect x="370" y="130" width="10" height="10" /><rect x="160" y="140" width="10" height="10" /><rect x="370" y="140" width="10" height="10" /><rect x="160" y="150" width="10" height="10" /><rect x="370" y="150" width="10" height="10" /><rect x="160" y="160" width="10" height="10" /><rect x="370" y="160" width="10" height="10" /><rect x="160" y="170" width="10" height="10" /><rect x="370" y="170" width="10" height="10" /><rect x="160" y="180" width="10" height="10" /><rect x="370" y="180" width="10" height="10" /><rect x="160" y="190" width="10" height="10" /><rect x="370" y="190" width="10" height="10" /><rect x="160" y="200" width="10" height="10" /><rect x="370" y="200" width="10" height="10" /><rect x="160" y="210" width="10" height="10" /><rect x="370" y="210" width="10" height="10" /><rect x="160" y="220" width="10" height="10" /><rect x="370" y="220" width="10" height="10" /><rect x="160" y="230" width="10" height="10" /><rect x="370" y="230" width="10" height="10" /><rect x="160" y="240" width="10" height="10" /><rect x="370" y="240" width="10" height="10" /><rect x="160" y="250" width="10" height="10" /><rect x="370" y="250" width="10" height="10" /><rect x="160" y="260" width="10" height="10" /><rect x="370" y="260" width="10" height="10" /><rect x="160" y="270" width="10" height="10" /><rect x="370" y="270" width="10" height="10" /><rect x="160" y="280" width="10" height="10" /><rect x="370" y="280" width="10" height="10" /><rect x="160" y="290" width="10" height="10" /><rect x="170" y="290" width="10" height="10" /><rect x="180" y="290" width="10" height="10" /><rect x="190" y="290" width="10" height="10" /><rect x="200" y="290" width="10" height="10" /><rect x="210" y="290" width="10" height="10" /><rect x="220" y="290" width="10" height="10" /><rect x="230" y="290" width="10" height="10" /><rect x="240" y="290" width="10" height="10" /><rect x="250" y="290" width="10" height="10" /><rect x="260" y="290" width="10" height="10" /><rect x="270" y="290" width="10" height="10" /><rect x="280" y="290" width="10" height="10" /><rect x="290" y="290" width="10" height="10" /><rect x="300" y="290" width="10" height="10" /><rect x="310" y="290" width="10" height="10" /><rect x="320" y="290" width="10" height="10" /><rect x="330" y="290" width="10" height="10" /><rect x="340" y="290" width="10" height="10" /><rect x="350" y="290" width="10" height="10" /><rect x="360" y="290" width="10" height="10" /><rect x="370" y="290" width="10" height="10" /></g></svg>