<svg xmlns="http://www.w3.org/2000/svg" width="500" height="500" viewBox="0 0 500 500" shape-rendering="crispEdges" data-cell-size="10" data-rows="50" data-cols="50"><rect width="100%" height="100%" fill="#fff" /><g fill="#111"><rect x="140" y="60" width="10" height="10" /><rect x="150" y="60" width="10" height="10" /><rect x="160" y="60" width="10" height="10" /><rect x="170" y="60" width="10" height="10" /><rect x="180" y="60" width="10" height="10" /><rect x="190" y="60" width="10" height="10" /><rect x="200" y="60" width="10" height="10" /><rect x="210" y="60" width="10" height="10" /><rect x="130" y="70" width="10" height="10" /><rect x="140" y="70" width="10" height="10" /><rect x="210" y="70" width="10" height="10" /><rect x="220" y="70" width="10" height="10" /><rect x="120" y="80" width="10" height="10" /><rect x="130" y="80" width="10" height="10" /><rect x="220" y="80" width="10" height="10" /><rect x="230" y="80" width="10" height="10" /><rect x="120" y="90" width="10" height="10" /><rect x="240" y="90" width="10" height="10" /><rect x="250" y="90" width="10" height="10" /><rect x="110" y="100" width="10" height="10" /><rect x="260" y="100" width="10" height="10" /><rect x="270" y="100" width="10" height="10" /><rect x="110" y="110" width="10" height="10" /><rect x="280" y="110" width="10" height="10" /><rect x="290" y="110" width="10" height="10" /><rect x="300" y="110" width="10" height="10" /><rect x="100" y="120" width="10" height="10" /><rect x="300" y="120" width="10" height="10" /><rect x="100" y="130" width="10" height="10" /><rect x="300" y="130" width="10" height="10" /><rect x="100" y="140" width="10" height="10" /><rect x="90" y="150" width="10" height="10" /><rect x="100" y="150" width="10" height="10" /><rect x="300" y="150" width="10" height="10" /><rect x="90" y="160" width="10" height="10" /><rect x="90" y="170" width="10" height="10" /><rect x="310" y="170" width="10" height="10" /><rect x="90" y="180" width="10" height="10" /><rect x="90" y="190" width="10" height="10" /><rect x="310" y="190" width="10" height="10" /><rect x="90" y="200" width="10" height="10" /><rect x="90" y="210" width="10" height="10" /><rect x="320" y="210" width="10" height="10" /><rect x="80" y="220" width="10" height="10" /><rect x="90" y="220" width="10" height="10" /><rect x="80" y="230" width="10" height="10" /><rect x="80" y="240" width="10" height="10" /><rect x="330" y="240" width="10" height="10" /><rect x="80" y="260" width="10" height="10" /><rect x="330" y="260" width="10" height="10" /><rect x="80" y="270" width="10" height="10" /><rect x="80" y="280" width="10" height="10" /><rect x="330" y="280" width="10" height="10" /><rect x="90" y="290" width="10" height="10" /><rect x="330" y="290" width="10" height="10" /><rect x="90" y="300" width="10" height="10" /><rect x="100" y="310" width="10" height="10" /><rect x="330" y="310" width="10" height="10" /><rect x="100" y="320" width="10" height="10" /><rect x="110" y="320" width="10" height="10" /><rect x="330" y="320" width="10" height="10" /><rect x="110" y="330" width="10" height="10" /><rect x="120" y="330" width="10" height="10" /><rect x="330" y="330" width="10" height="10" /><rect x="130" y="340" width="10" height="10" /><rect x="140" y="340" width="10" height="10" /><rect x="320" y="340" width="10" height="10" /><rect x="160" y="350" width="10" height="10" /><rect x="310" y="350" width="10" height="10" /><rect x="320" y="350" width="10" height="10" /><rect x="180" y="360" width="10" height="10" /><rect x="310" y="360" width="10" height="10" /><rect x="200" y="370" width="10" height="10" /><rect x="210" y="370" width="10" height="10" /><rect x="220" y="370" width="10" height="10" /><rect x="230" y="370" width="10" height="10" /><rect x="240" y="370" width="10" height="10" /><rect x="250" y="370" width="10" height="10" /><rect x="300" y="370" width="10" height="10" /><rect x="310" y="370" width="10" height="10" /><rect x="260" y="380" width="10" height="10" /><rect x="270" y="380" width="10" height="10" /><rect x="280" y="380" width="10" height="10" /><rect x="290" y="380" width="10" height="10" /></g></svg>