<svg xmlns="http://www.w3.org/2000/svg" width="500" height="500" viewBox="0 0 500 500" shape-rendering="crispEdges" data-cell-size="10" data-rows="50" data-cols="50"><rect width="100%" height="100%" fill="#fff" /><g fill="#111"><rect x="60" y="160" width="10" height="10" /><rect x="70" y="160" width="10" height="10" /><rect x="80" y="160" width="10" height="10" /><rect x="90" y="160" width="10" height="10" /><rect x="100" y="160" width="10" height="10" /><rect x="140" y="160" width="10" height="10" /><rect x="40" y="170" width="10" height="10" /><rect x="50" y="170" width="10" height="10" /><rect x="60" y="170" width="10" height="10" /><rect x="100" y="170" width="10" height="10" /><rect x="140" y="170" width="10" height="10" /><rect x="40" y="180" width="10" height="10" /><rect x="110" y="180" width="10" height="10" /><rect x="140" y="180" width="10" height="10" /><rect x="40" y="190" width="10" height="10" /><rect x="140" y="200" width="10" height="10" /><rect x="410" y="200" width="10" height="10" /><rect x="420" y="200" width="10" height="10" /><rect x="40" y="210" width="10" height="10" /><rect x="50" y="210" width="10" height="10" /><rect x="120" y="210" width="10" height="10" /><rect x="270" y="210" width="10" height="10" /><rect x="280" y="210" width="10" height="10" /><rect x="290" y="210" width="10" height="10" /><rect x="300" y="210" width="10" height="10" /><rect x="310" y="210" width="10" height="10" /><rect x="320" y="210" width="10" height="10" /><rect x="380" y="210" width="10" height="10" /><rect x="390" y="210" width="10" height="10" /><rect x="400" y="210" width="10" height="10" /><rect x="410" y="210" width="10" height="10" /><rect x="420" y="210" width="10" height="10" /><rect x="50" y="220" width="10" height="10" /><rect x="140" y="220" width="10" height="10" /><rect x="150" y="220" width="10" height="10" /><rect x="160" y="220" width="10" height="10" /><rect x="170" y="220" width="10" height="10" /><rect x="180" y="220" width="10" height="10" /><rect x="270" y="220" width="10" height="10" /><rect x="380" y="220" width="10" height="10" /><rect x="420" y="220" width="10" height="10" /><rect x="430" y="220" width="10" height="10" /><rect x="50" y="230" width="10" height="10" /><rect x="180" y="230" width="10" height="10" /><rect x="210" y="230" width="10" height="10" /><rect x="220" y="230" width="10" height="10" /><rect x="230" y="230" width="10" height="10" /><rect x="240" y="230" width="10" height="10" /><rect x="250" y="230" width="10" height="10" /><rect x="260" y="230" width="10" height="10" /><rect x="270" y="230" width="10" height="10" /><rect x="280" y="230" width="10" height="10" /><rect x="320" y="230" width="10" height="10" /><rect x="430" y="230" width="10" height="10" /><rect x="120" y="240" width="10" height="10" /><rect x="140" y="240" width="10" height="10" /><rect x="180" y="240" width="10" height="10" /><rect x="210" y="240" width="10" height="10" /><rect x="270" y="240" width="10" height="10" /><rect x="280" y="240" width="10" height="10" /><rect x="380" y="240" width="10" height="10" /><rect x="430" y="240" width="10" height="10" /><rect x="440" y="240" width="10" height="10" /><rect x="70" y="250" width="10" height="10" /><rect x="90" y="250" width="10" height="10" /><rect x="110" y="250" width="10" height="10" /><rect x="120" y="250" width="10" height="10" /><rect x="130" y="250" width="10" height="10" /><rect x="140" y="250" width="10" height="10" /><rect x="210" y="250" width="10" height="10" /><rect x="330" y="250" width="10" height="10" /><rect x="440" y="250" width="10" height="10" /><rect x="50" y="260" width="10" height="10" /><rect x="140" y="260" width="10" height="10" /><rect x="180" y="260" width="10" height="10" /><rect x="210" y="260" width="10" height="10" /><rect x="280" y="260" width="10" height="10" /><rect x="380" y="260" width="10" height="10" /><rect x="440" y="260" width="10" height="10" /><rect x="50" y="270" width="10" height="10" /><rect x="130" y="270" width="10" height="10" /><rect x="180" y="270" width="10" height="10" /><rect x="280" y="270" width="10" height="10" /><rect x="310" y="270" width="10" height="10" /><rect x="330" y="270" width="10" height="10" /><rect x="390" y="270" width="10" height="10" /><rect x="450" y="270" width="10" height="10" /><rect x="50" y="280" width="10" height="10" /><rect x="180" y="280" width="10" height="10" /><rect x="210" y="280" width="10" height="10" /><rect x="290" y="280" width="10" height="10" /><rect x="310" y="280" width="10" height="10" /><rect x="340" y="280" width="10" height="10" /><rect x="450" y="280" width="10" height="10" /><rect x="50" y="290" width="10" height="10" /><rect x="210" y="290" width="10" height="10" /><rect x="290" y="290" width="10" height="10" /><rect x="310" y="290" width="10" height="10" /><rect x="320" y="290" width="10" height="10" /><rect x="340" y="290" width="10" height="10" /><rect x="390" y="290" width="10" height="10" /><rect x="50" y="300" width="10" height="10" /><rect x="130" y="300" width="10" height="10" /><rect x="290" y="300" width="10" height="10" /><rect x="320" y="300" width="10" height="10" /><rect x="340" y="300" width="10" height="10" /><rect x="400" y="300" width="10" height="10" /><rect x="450" y="300" width="10" height="10" /><rect x="50" y="310" width="10" height="10" /><rect x="400" y="310" width="10" height="10" /><rect x="410" y="310" width="10" height="10" /><rect x="450" y="310" width="10" height="10" /><rect x="140" y="320" width="10" height="10" /><rect x="320" y="320" width="10" height="10" /><rect x="330" y="320" width="10" height="10" /><rect x="410" y="320" width="10" height="10" /><rect x="420" y="320" width="10" height="10" /><rect x="430" y="320" width="10" height="10" /><rect x="440" y="320" width="10" height="10" /><rect x="450" y="320" width="10" height="10" /><rect x="140" y="330" width="10" height="10" /><rect x="270" y="330" width="10" height="10" /><rect x="280" y="330" width="10" height="10" /><rect x="290" y="330" width="10" height="10" /><rect x="300" y="330" width="10" height="10" /><rect x="140" y="340" width="10" height="10" /><rect x="270" y="340" width="10" height="10" /><rect x="330" y="340" width="10" height="10" /><rect x="340" y="340" width="10" height="10" /><rect x="140" y="350" width="10" height="10" /><rect x="270" y="350" width="10" height="10" /><rect x="270" y="360" width="10" height="10" /><rect x="340" y="360" width="10" height="10" /><rect x="340" y="370" width="10" height="10" /><rect x="350" y="370" width="10" height="10" /><rect x="270" y="380" width="10" height="10" /><rect x="340" y="380" width="10" height="10" /><rect x="350" y="380" width="10" height="10" /><rect x="280" y="390" width="10" height="10" /><rect x="330" y="390" width="10" height="10" /><rect x="300" y="400" width="10" height="10" /><rect x="310" y="400" width="10" height="10" /><rect x="320" y="400" width="10" height="10" /></g></svg>