<svg xmlns="http://www.w3.org/2000/svg" width="500" height="500" viewBox="0 0 500 500" shape-rendering="crispEdges" data-cell-size="10" data-rows="50" data-cols="50"><rect width="100%" height="100%" fill="#fff" /><g fill="#111"><rect x="310" y="170" width="10" height="10" /><rect x="320" y="170" width="10" height="10" /><rect x="330" y="170" width="10" height="10" /><rect x="340" y="170" width="10" height="10" /><rect x="290" y="180" width="10" height="10" /><rect x="340" y="180" width="10" height="10" /><rect x="280" y="200" width="10" height="10" /><rect x="280" y="210" width="10" height="10" /><rect x="330" y="210" width="10" height="10" /><rect x="380" y="230" width="10" height="10" /><rect x="320" y="260" width="10" height="10" /><rect x="360" y="260" width="10" height="10" /><rect x="330" y="300" width="10" height="10" /><rect x="300" y="310" width="10" height="10" /><rect x="280" y="350" width="10" height="10" /><rect x="300" y="350" width="10" height="10" /><rect x="280" y="380" width="10" height="10" /><rect x="270" y="390" width="10" height="10" /><rect x="270" y="400" width="10" height="10" /></g></svg>